<svg xmlns="http://www.w3.org/2000/svg" viewBox="0 0 512 512" id="notification-bell">
  <path d="M344.568 126.541c-22.684-21.343-54.033-34.591-88.566-34.591s-65.882 13.248-88.568 34.59c-22.507 21.175-36.477 50.345-36.477 82.393v94.825c0 29.282-20.916 50.29-40.554 70.009-3.828 3.845-7.604 7.637-11.238 11.548-3.16 3.4-4.579 7.311-4.579 11.092 0 2.328.491 4.588 1.404 6.638.955 2.145 2.378 4.135 4.191 5.82 3.324 3.088 8.027 5.083 13.696 5.083h324.245c5.635 0 10.304-1.945 13.611-4.967a17.9 17.9 0 0 0 4.231-5.871 16.3 16.3 0 0 0 1.452-6.695c0-3.763-1.384-7.645-4.462-11.011-3.11-3.401-7.159-7.533-11.277-11.733-19.555-19.948-40.631-41.449-40.631-70.513v-94.223c0-32.048-13.97-61.217-36.477-82.392ZM205.174 436.296a53.24 53.24 0 0 0 14.593 23.147c9.482 8.816 22.216 14.209 36.233 14.209s26.751-5.393 36.233-14.209a53.2 53.2 0 0 0 14.593-23.147H205.175Zm80.428-363.847q.264-2.001.266-4.233a29.78 29.78 0 0 0-8.747-21.121c-5.404-5.404-12.875-8.747-21.122-8.747s-15.718 3.343-21.121 8.747a29.78 29.78 0 0 0-8.747 21.121q.002 2.233.266 4.234c9.572-1.866 19.474-2.847 29.604-2.847s20.029.981 29.6 2.846Zm-80.794 5.881a52 52 0 0 1-1.024-10.115c0-14.417 5.846-27.473 15.295-36.921S241.583 16 256 16s27.472 5.845 36.922 15.294 15.294 22.504 15.294 36.921c0 3.355-.352 6.741-1.024 10.115 19.918 7.034 37.838 18.035 52.652 31.974 26.87 25.28 43.549 60.193 43.549 98.63v94.223c0 20.03 17.725 38.113 34.17 54.889 3.861 3.939 7.66 7.815 11.801 12.343 7.174 7.847 10.399 17.028 10.399 26.026 0 5.469-1.21 10.872-3.46 15.861-2.192 4.861-5.434 9.345-9.556 13.115-7.259 6.636-17.12 10.905-28.625 10.905h-88.257c-3.299 15.431-11.306 29.114-22.445 39.471C293.919 488.32 275.843 496 256 496s-37.919-7.68-51.42-20.233c-11.139-10.358-19.146-24.042-22.445-39.471H93.878c-11.668 0-21.62-4.358-28.884-11.108a40.2 40.2 0 0 1-9.343-13.064c-2.221-4.981-3.412-10.334-3.412-15.717 0-9.12 3.286-18.407 10.603-26.28 3.63-3.906 7.67-7.962 11.762-12.073 16.467-16.535 34.006-34.15 34.006-54.295v-94.825c0-38.438 16.679-73.351 43.549-98.63 14.815-13.938 32.733-24.94 52.651-31.973Z" style="fill:#000;fill-rule:evenodd;stroke-width:0"></path>
</svg>
