<?xml version="1.0" encoding="UTF-8" standalone="no"?>
<!DOCTYPE svg PUBLIC "-//W3C//DTD SVG 1.1//EN" "http://www.w3.org/Graphics/SVG/1.1/DTD/svg11.dtd">
<svg width="100%" height="100%" viewBox="0 0 622 105" version="1.1" xmlns="http://www.w3.org/2000/svg" xmlns:xlink="http://www.w3.org/1999/xlink" xml:space="preserve" xmlns:serif="http://www.serif.com/" style="fill-rule:evenodd;clip-rule:evenodd;stroke-linejoin:round;stroke-miterlimit:2;">
    <path d="M496.64,55.315L496.605,52.348C496.605,52.348 495.986,45.418 487.539,45.749C487.539,45.749 480.541,44.578 477.764,52.409L466.608,49.703C466.608,49.703 469.786,36.053 487.529,36.029C487.529,36.029 508.254,35.027 509.082,52.28L509.082,84.638L496.605,84.638L496.605,78.803C496.605,78.803 491.874,85.561 481.465,85.478C481.465,85.478 464.746,85.833 464.125,72.03C464.125,72.03 463.158,59.805 477.551,57.08C477.551,57.08 481.387,55.433 495.956,55.466L496.64,55.315ZM496.535,63.388L487.551,63.379C487.551,63.379 477.47,64.604 477.484,70.659C477.484,70.659 476.8,77.391 487.586,75.999C487.586,75.999 495.342,75.045 496.585,67.638L496.535,63.388Z" style="fill:rgb(255,91,2);"/>
    <g transform="matrix(1.0522,0,0,1.00277,-27.4936,6.59949)">
        <path d="M529.057,72.83L529.057,95.245L516.469,95.245L516.469,30.632L529.057,30.632L529.057,35.946C532.753,31.833 537.686,29.319 543.101,29.319C554.55,29.319 563.844,40.552 563.844,54.388C563.844,68.224 554.55,79.457 543.101,79.457C537.686,79.457 532.753,76.943 529.057,72.83ZM539.677,40.212C533.367,40.212 528.244,46.449 528.244,54.132C528.244,61.814 533.367,68.051 539.677,68.051C545.987,68.051 551.11,61.814 551.11,54.132C551.11,46.449 545.987,40.212 539.677,40.212Z" style="fill:rgb(255,91,2);"/>
    </g>
    <g transform="matrix(1.0522,0,0,1.00277,26.3752,6.59949)">
        <path d="M529.057,72.83L529.057,95.245L516.469,95.245L516.469,30.632L529.057,30.632L529.057,35.946C532.753,31.833 537.686,29.319 543.101,29.319C554.55,29.319 563.844,40.552 563.844,54.388C563.844,68.224 554.55,79.457 543.101,79.457C537.686,79.457 532.753,76.943 529.057,72.83ZM539.677,40.212C533.367,40.212 528.244,46.449 528.244,54.132C528.244,61.814 533.367,68.051 539.677,68.051C545.987,68.051 551.11,61.814 551.11,54.132C551.11,46.449 545.987,40.212 539.677,40.212Z" style="fill:rgb(255,91,2);"/>
    </g>
    <path d="M214.419,64.694C214.419,64.694 214.59,72.69 224.011,72.975C224.011,72.975 233.965,74.041 235.972,62.218L236.034,30.203L251.429,30.189L251.494,84.241L236.629,84.291L236.616,76.491C236.616,76.491 232.843,85.168 222.286,85.376C222.286,85.376 213.378,86.878 206.163,81.05C206.163,81.05 199.371,76.17 199.036,66.119L198.962,30.203L214.421,30.176L214.419,64.694Z" style="fill:white;"/>
    <path d="M172.763,56.328C172.763,56.328 172.616,45.616 183.914,43.404C183.914,43.404 187.4,42.605 191.698,43.707L191.752,29.019C191.752,29.019 179.388,26.455 172.858,39.099L172.739,30.195L157.879,30.166L157.866,84.187L172.762,84.248L172.763,56.328Z" style="fill:white;"/>
    <path d="M161.431,5.504L99.282,5.504L99.282,18.777L122.445,18.777L122.445,84.23L138.906,84.23L138.906,18.841L161.436,18.841L161.431,5.504Z" style="fill:white;"/>
    <g transform="matrix(0.26187,0,0,0.26187,-86.9068,-62.6686)">
        <path d="M658.039,309.186C655.607,308.47 653.585,307.663 651.254,308.016C649.745,310.452 650.286,313.182 650.282,315.77C650.233,345.093 650.293,374.417 650.239,403.74C650.194,427.514 642.058,447.941 625.022,464.768C607.361,482.213 589.978,499.939 572.284,517.349C539.743,549.368 484.516,547.983 453.803,514.524C426.5,484.78 427.415,437.033 455.858,408.405C461.381,402.846 467.108,397.499 473.554,393.007C478.29,389.707 483.444,387.256 489.39,388.045C496.119,388.938 501.613,392.245 503.725,398.903C506.087,406.351 504.166,413.174 498.039,418.291C492.672,422.775 487.165,427.079 482.277,432.109C469.289,445.477 466.908,461.185 472.681,478.291C477.666,493.059 493.332,503.774 509.436,504.928C525.638,506.09 538.959,500.998 550.284,489.217C565.984,472.887 582.165,457.015 598.293,441.103C608.657,430.878 614.122,418.98 613.942,404.128C613.577,374.143 613.843,344.15 613.841,314.16C613.84,307.918 613.089,307.387 607.213,309.01C602.722,310.25 598.205,311.406 593.674,312.496C588.084,313.842 582.766,311.752 580.308,307.361C577.582,302.491 578.327,297.895 582.831,293.37C596.346,279.79 609.876,266.226 623.488,252.743C629.409,246.878 636.005,246.991 641.922,252.92C655.338,266.364 668.714,279.846 682.074,293.344C686.196,297.51 687.122,302.601 684.718,306.984C682.29,311.409 676.757,313.883 671.462,312.677C667.083,311.68 662.765,310.421 658.039,309.186Z" style="fill:rgb(255,91,2);fill-rule:nonzero;"/>
        <path d="M445.25,530.545C430.395,541.031 414.099,542.4 397.277,538.705C366.255,531.89 343.101,504.09 340.595,472.264C338.483,445.431 346.98,422.982 366.147,404.193C392.675,378.189 418.62,351.581 445.456,325.902C478.892,293.907 534.344,295.573 562.038,337.562C577.778,361.426 578.955,387.456 568.689,414.037C564.474,424.952 557.911,434.221 549.464,442.302C541.52,449.9 533.915,457.852 526.054,465.539C518.113,473.306 506.391,473.181 499.301,465.403C492.791,458.261 492.63,448.987 499.344,442.007C508.352,432.644 517.864,423.761 526.754,414.291C538.715,401.55 542.576,386.225 538.367,369.411C532.249,344.964 506.105,332.878 482.533,343.108C477.3,345.379 472.552,348.409 468.474,352.466C442.138,378.671 415.803,404.876 389.425,431.039C370.514,449.797 370.55,478.833 389.615,495.91C398.868,504.198 409.685,506.801 421.661,503.942C425.199,503.098 427.07,503.681 428.831,506.958C432.391,513.585 437.122,519.419 442.291,524.897C443.712,526.403 445.816,527.621 445.25,530.545Z" style="fill:white;fill-rule:nonzero;"/>
    </g>
    <path d="M315.481,56.746L315.462,60.865L274.626,61.074C275.254,73.199 287.692,73.811 287.692,73.811C298.817,73.761 300.993,65.953 300.993,65.953L314.118,70.685C307.053,86.503 287.794,85.804 287.794,85.804C258.586,84.134 259.161,57.172 259.161,57.172C260.165,27.135 287.867,28.927 287.867,28.927C316.647,29.113 315.481,56.746 315.481,56.746ZM274.797,51.049L300.673,51.049C300.673,51.049 300.443,40.804 287.871,39.887C287.871,39.887 277.345,39.696 274.871,49.747L274.797,51.049Z" style="fill:white;"/>
    <g transform="matrix(1,0,0,1,118.776,0)">
        <path d="M315.481,56.746L315.462,60.865L274.626,61.074C275.254,73.199 287.692,73.811 287.692,73.811C298.817,73.761 300.993,65.953 300.993,65.953L314.118,70.685C307.053,86.503 287.794,85.804 287.794,85.804C258.586,84.134 259.161,57.172 259.161,57.172C260.165,27.135 287.867,28.927 287.867,28.927C316.647,29.113 315.481,56.746 315.481,56.746ZM274.797,51.049L300.673,51.049C300.673,51.049 300.443,40.804 287.871,39.887C287.871,39.887 277.345,39.696 274.871,49.747L274.797,51.049Z" style="fill:white;"/>
    </g>
    <path d="M337.92,5.852L323.435,5.852L323.435,84.211L337.958,84.211L337.976,68.294L344.86,61.126L360.215,84.202L378.82,84.259L355.85,52.312L376.782,30.262L358.129,30.262L337.983,51.23L337.92,5.852Z" style="fill:white;"/>
    <g transform="matrix(1,0,0,1,-5.35561,0)">
        <circle cx="454.335" cy="76.985" r="8.237" style="fill:rgb(255,91,2);"/>
    </g>
</svg>
